<svg width="219" height="61" viewBox="0 0 219 61" fill="none" xmlns="http://www.w3.org/2000/svg">
<path d="M69.6113 36.0605V35.5479C69.6113 33.611 69.888 31.8288 70.4414 30.2012C70.9948 28.5573 71.8005 27.1331 72.8584 25.9287C73.9163 24.7243 75.2184 23.7884 76.7646 23.1211C78.3109 22.4375 80.085 22.0957 82.0869 22.0957C84.0889 22.0957 85.8711 22.4375 87.4336 23.1211C88.9961 23.7884 90.3063 24.7243 91.3643 25.9287C92.4385 27.1331 93.2523 28.5573 93.8057 30.2012C94.359 31.8288 94.6357 33.611 94.6357 35.5479V36.0605C94.6357 37.9811 94.359 39.7633 93.8057 41.4072C93.2523 43.0348 92.4385 44.459 91.3643 45.6797C90.3063 46.8841 89.0042 47.82 87.458 48.4873C85.9118 49.1546 84.1377 49.4883 82.1357 49.4883C80.1338 49.4883 78.3516 49.1546 76.7891 48.4873C75.2428 47.82 73.9326 46.8841 72.8584 45.6797C71.8005 44.459 70.9948 43.0348 70.4414 41.4072C69.888 39.7633 69.6113 37.9811 69.6113 36.0605ZM76.6426 35.5479V36.0605C76.6426 37.1673 76.7402 38.2008 76.9355 39.1611C77.1309 40.1214 77.4401 40.9678 77.8633 41.7002C78.3027 42.4163 78.8724 42.9779 79.5723 43.3848C80.2721 43.7917 81.1266 43.9951 82.1357 43.9951C83.1123 43.9951 83.9505 43.7917 84.6504 43.3848C85.3503 42.9779 85.9118 42.4163 86.335 41.7002C86.7581 40.9678 87.0674 40.1214 87.2627 39.1611C87.4743 38.2008 87.5801 37.1673 87.5801 36.0605V35.5479C87.5801 34.4736 87.4743 33.4645 87.2627 32.5205C87.0674 31.5602 86.75 30.7139 86.3105 29.9814C85.8874 29.2327 85.3258 28.6468 84.626 28.2236C83.9261 27.8005 83.0798 27.5889 82.0869 27.5889C81.0941 27.5889 80.2477 27.8005 79.5479 28.2236C78.8643 28.6468 78.3027 29.2327 77.8633 29.9814C77.4401 30.7139 77.1309 31.5602 76.9355 32.5205C76.7402 33.4645 76.6426 34.4736 76.6426 35.5479ZM97.834 36.0605V35.5479C97.834 33.611 98.1107 31.8288 98.6641 30.2012C99.2174 28.5573 100.023 27.1331 101.081 25.9287C102.139 24.7243 103.441 23.7884 104.987 23.1211C106.534 22.4375 108.308 22.0957 110.31 22.0957C112.312 22.0957 114.094 22.4375 115.656 23.1211C117.219 23.7884 118.529 24.7243 119.587 25.9287C120.661 27.1331 121.475 28.5573 122.028 30.2012C122.582 31.8288 122.858 33.611 122.858 35.5479V36.0605C122.858 37.9811 122.582 39.7633 122.028 41.4072C121.475 43.0348 120.661 44.459 119.587 45.6797C118.529 46.8841 117.227 47.82 115.681 48.4873C114.134 49.1546 112.36 49.4883 110.358 49.4883C108.356 49.4883 106.574 49.1546 105.012 48.4873C103.465 47.82 102.155 46.8841 101.081 45.6797C100.023 44.459 99.2174 43.0348 98.6641 41.4072C98.1107 39.7633 97.834 37.9811 97.834 36.0605ZM104.865 35.5479V36.0605C104.865 37.1673 104.963 38.2008 105.158 39.1611C105.354 40.1214 105.663 40.9678 106.086 41.7002C106.525 42.4163 107.095 42.9779 107.795 43.3848C108.495 43.7917 109.349 43.9951 110.358 43.9951C111.335 43.9951 112.173 43.7917 112.873 43.3848C113.573 42.9779 114.134 42.4163 114.558 41.7002C114.981 40.9678 115.29 40.1214 115.485 39.1611C115.697 38.2008 115.803 37.1673 115.803 36.0605V35.5479C115.803 34.4736 115.697 33.4645 115.485 32.5205C115.29 31.5602 114.973 30.7139 114.533 29.9814C114.11 29.2327 113.549 28.6468 112.849 28.2236C112.149 27.8005 111.302 27.5889 110.31 27.5889C109.317 27.5889 108.47 27.8005 107.771 28.2236C107.087 28.6468 106.525 29.2327 106.086 29.9814C105.663 30.7139 105.354 31.5602 105.158 32.5205C104.963 33.4645 104.865 34.4736 104.865 35.5479ZM134.211 28.0527V49H127.155V22.584H133.771L134.211 28.0527ZM133.234 34.8643H131.281C131.281 33.0251 131.501 31.3324 131.94 29.7861C132.396 28.2236 133.055 26.8727 133.918 25.7334C134.797 24.5778 135.879 23.6826 137.165 23.0479C138.451 22.4131 139.94 22.0957 141.633 22.0957C142.805 22.0957 143.879 22.2747 144.855 22.6328C145.832 22.9746 146.67 23.5199 147.37 24.2686C148.086 25.001 148.64 25.9613 149.03 27.1494C149.421 28.3213 149.616 29.7292 149.616 31.373V49H142.585V32.1543C142.585 30.9499 142.422 30.0221 142.097 29.3711C141.771 28.7201 141.307 28.2643 140.705 28.0039C140.119 27.7435 139.411 27.6133 138.581 27.6133C137.67 27.6133 136.872 27.8005 136.188 28.1748C135.521 28.5492 134.968 29.07 134.528 29.7373C134.089 30.3883 133.763 31.1533 133.552 32.0322C133.34 32.9111 133.234 33.8551 133.234 34.8643ZM148.957 34.0586L146.442 34.376C146.442 32.6507 146.654 31.0475 147.077 29.5664C147.517 28.0853 148.16 26.7832 149.006 25.6602C149.868 24.5371 150.935 23.6663 152.204 23.0479C153.474 22.4131 154.938 22.0957 156.599 22.0957C157.868 22.0957 159.024 22.2829 160.065 22.6572C161.107 23.0153 161.994 23.5931 162.727 24.3906C163.475 25.1719 164.045 26.1973 164.436 27.4668C164.842 28.7363 165.046 30.2907 165.046 32.1299V49H157.99V32.1299C157.99 30.9092 157.827 29.9814 157.502 29.3467C157.193 28.6956 156.737 28.248 156.135 28.0039C155.549 27.7435 154.849 27.6133 154.035 27.6133C153.189 27.6133 152.448 27.7842 151.813 28.126C151.179 28.4515 150.65 28.9072 150.227 29.4932C149.803 30.0791 149.486 30.7627 149.274 31.5439C149.063 32.3089 148.957 33.1471 148.957 34.0586ZM191.511 43.5068V49H171.442V43.5068H191.511ZM191.12 26.6367L174.274 49H169.562V44.8252L186.335 22.584H191.12V26.6367ZM188.63 22.584V28.1016H169.953V22.584H188.63ZM203.767 46.0215L210.773 22.584H218.317L207.697 52.9795C207.469 53.6468 207.16 54.363 206.77 55.1279C206.395 55.8929 205.882 56.6172 205.231 57.3008C204.597 58.0007 203.791 58.5703 202.814 59.0098C201.854 59.4492 200.674 59.6689 199.274 59.6689C198.607 59.6689 198.062 59.6283 197.639 59.5469C197.215 59.4655 196.711 59.3516 196.125 59.2051V54.0537C196.304 54.0537 196.491 54.0537 196.687 54.0537C196.882 54.07 197.069 54.0781 197.248 54.0781C198.176 54.0781 198.933 53.9723 199.519 53.7607C200.104 53.5492 200.576 53.2236 200.935 52.7842C201.293 52.361 201.577 51.8076 201.789 51.124L203.767 46.0215ZM200.837 22.584L206.574 41.7246L207.575 49.1709L202.79 49.6836L193.293 22.584H200.837Z" fill="black"/>
<path d="M66.1111 53.3751H60.4444V13.5228C60.4444 10.2762 57.9062 7.62538 54.7778 7.62538L41.5556 7.62657V15.2503H52.8889V61H66.1111C67.1589 61 68 60.1511 68 59.201V55.4957C68 54.2209 67.1618 53.3751 66.1111 53.3751ZM33.091 0.120406L10.4243 6.04761C8.62986 6.49474 7.55556 8.07334 7.55556 9.87474V53.3751H1.88889C0.841146 53.3751 0 54.2239 0 55.1741V58.8793C0 60.1541 0.841146 61 1.88889 61H37.7778V3.94753C37.7778 1.38603 35.4757 -0.505078 33.091 0.120406ZM27.3889 34.3127C25.8247 34.3127 24.5556 32.6007 24.5556 30.6074C24.5556 28.5082 25.8247 26.9022 27.3889 26.9022C28.9531 26.9022 30.2222 28.4034 30.2222 30.5002C30.2222 32.5971 28.959 34.3127 27.3889 34.3127Z" fill="black"/>
</svg>
